# xmcd
#
# Track frame offsets: 
#        150
#        16840
#        31100
#        52232
#        71500
#        88467
#        102902
#        121727
#        143985
#        161215
#        190797
#
# Disc length: 2633 seconds
#
# Revision: 0
# Processed by: cddbd v1.5.1PL0 Copyright (c) Steve Scherf et al.
# Submitted via: ExactAudioCopy v0.90b3
#
DISCID=960a470b
DTITLE=Hot 'N' Nasty - Hot 'N' Nasty
DYEAR=1990
DGENRE=Hard Rock
TTITLE0=Roll Me Down
TTITLE1=You Can Have It (If You Want It)
TTITLE2=Let It Roll
TTITLE3=Hot 'N' Nasty
TTITLE4=Don't Walk Away
TTITLE5=Goin' Down
TTITLE6=One Of The Willing
TTITLE7=Dead Flowers
TTITLE8=No For An Answer
TTITLE9=Angel Love
TTITLE10=Munsters
EXTD=
EXTT0=
EXTT1=
EXTT2=
EXTT3=
EXTT4=
EXTT5=
EXTT6=
EXTT7=
EXTT8=
EXTT9=
EXTT10=
PLAYORDER=
